<?xml version="1.0" standalone="no"?><!DOCTYPE svg PUBLIC "-//W3C//DTD SVG 1.1//EN" "http://www.w3.org/Graphics/SVG/1.1/DTD/svg11.dtd"><svg t="1770367517918" class="icon" viewBox="0 0 1024 1024" version="1.1" xmlns="http://www.w3.org/2000/svg" p-id="5002" xmlns:xlink="http://www.w3.org/1999/xlink" width="200" height="200"><path d="M516.421818 16.058182C242.501818 16.058182 20.48 238.08 20.48 512s222.021818 495.941818 495.941818 495.941818S1012.363636 785.92 1012.363636 512 790.341818 16.058182 516.421818 16.058182z m249.018182 491.287273c-7.68 8.378182-20.48 9.076364-29.556364 0.930909v217.134545c0 10.938182-4.189091 21.178182-11.869091 29.090909-7.68 7.68-18.152727 12.101818-28.858181 12.101818h-121.949091v-123.112727c0-7.68-3.025455-14.894545-8.378182-20.48-5.352727-5.352727-12.8-8.378182-20.48-8.378182h-56.087273c-7.68 0-14.894545 3.025455-20.48 8.378182-5.352727 5.352727-8.378182 12.8-8.378182 20.48v123.112727h-119.156363a40.866909 40.866909 0 0 1-40.727273-40.96v-219.927272l-3.490909 3.258181a20.526545 20.526545 0 0 1-27.461818-30.487272l221.789091-210.618182a40.727273 40.727273 0 0 1 54.923636 0l218.996364 210.618182c3.956364 3.723636 6.516364 8.610909 6.749091 14.196363 0 5.352727-1.861818 10.705455-5.585455 14.661819z" fill="#1296db" p-id="5003"></path></svg>